<svg width="367" height="85" viewBox="0 0 367 85" fill="none" xmlns="http://www.w3.org/2000/svg">
<path d="M160.512 42.9161C160.512 40.9175 162.031 39.4204 164.037 39.4204C166.043 39.4204 167.585 40.9175 167.585 42.9161C167.585 44.9147 166.066 46.4118 164.037 46.4118C162.009 46.4118 160.512 44.9147 160.512 42.9161Z" fill="#294F9E"/>
<path d="M82.6403 45.4462H88.3068C88.3068 47.0481 89.2649 48.0437 90.6123 48.0437C91.9596 48.0437 92.9178 47.0481 92.9178 45.7382V30.8796H98.427V45.7382C98.427 50.0947 95.0661 53.3583 90.5449 53.3583C86.0237 53.3583 82.6328 50.0947 82.6328 45.4462H82.6403Z" fill="#192538"/>
<path d="M111.662 30.8721H122.875C126.206 30.8721 128.834 33.2749 128.834 36.5759C128.834 38.5596 127.875 40.3561 126.498 41.2169C128.482 42.0478 129.897 44.3907 129.897 46.9507C129.897 50.5063 127.209 52.969 123.616 52.969H111.67V30.8721H111.662ZM116.977 35.8424V39.3006H121.461C122.419 39.3006 123.19 38.5671 123.19 37.5715C123.19 36.5759 122.456 35.8424 121.461 35.8424H116.977ZM116.977 43.9715V48.0062H122.231C123.384 48.0062 124.253 47.1079 124.253 45.9851C124.253 44.8623 123.384 43.964 122.231 43.964H116.977V43.9715Z" fill="#192538"/>
<path d="M142.793 30.8721H148.302V52.969H142.793V30.8721Z" fill="#192538"/>
<path d="M179.359 30.8721H182.309V50.2144H192.721V52.969H179.367V30.8721H179.359Z" fill="#192538"/>
<path d="M206.682 30.8721H209.631V52.969H206.682V30.8721Z" fill="#192538"/>
<path d="M225.551 30.8721H235.544C238.748 30.8721 241.21 33.2075 241.21 36.4113C241.21 38.5895 239.99 40.4459 238.396 41.2169C240.858 41.8606 242.558 44.1961 242.558 47.0106C242.558 50.4389 239.96 52.969 236.472 52.969H225.551V30.8721ZM228.403 33.5294V40.2513H234.87C236.667 40.2513 238.201 38.8066 238.201 36.8903C238.201 34.9741 236.756 33.5294 234.87 33.5294H228.403ZM228.403 42.7888V50.3117H235.798C237.947 50.3117 239.548 48.6799 239.548 46.5315C239.548 44.3832 237.947 42.7814 235.798 42.7814H228.403V42.7888Z" fill="#192538"/>
<path d="M256.811 30.8721H266.257C270.194 30.8721 273.174 33.754 273.174 37.6015C273.174 41.157 270.576 43.8443 267.028 44.1661L270.007 48.4253C270.876 49.6455 271.931 50.2218 273.144 50.2218H273.877V52.9765H272.822C270.419 52.9765 268.563 51.951 267.283 49.8027L263.57 44.1961H259.76V52.969H256.811V30.8721ZM259.76 33.6267V41.6361H266.227C268.473 41.6361 270.165 39.9369 270.165 37.6314C270.165 35.3259 268.465 33.6267 266.227 33.6267H259.76Z" fill="#192538"/>
<path d="M294.319 30.8721H297.808L306.805 52.969H303.571L301.423 47.6169H290.599L288.451 52.969H285.314L294.312 30.8721H294.319ZM300.338 44.8997L296.011 34.0758L291.685 44.8997H300.33H300.338Z" fill="#192538"/>
<path d="M319.854 30.8721H329.3C333.237 30.8721 336.217 33.754 336.217 37.6015C336.217 41.157 333.619 43.8443 330.071 44.1661L333.05 48.4253C333.911 49.6455 334.974 50.2218 336.187 50.2218H336.92V52.9765H335.865C333.462 52.9765 331.606 51.951 330.326 49.8027L326.613 44.1961H322.803V52.969H319.854V30.8721ZM322.795 33.6267V41.6361H329.263C331.508 41.6361 333.2 39.9369 333.2 37.6314C333.2 35.3259 331.501 33.6267 329.263 33.6267H322.795Z" fill="#192538"/>
<path d="M356.494 44.81L347.459 30.8796H350.79L357.998 41.9281L362.258 35.3933C363.313 33.7316 363.957 32.257 363.889 30.8796H366.996C367.063 32.7061 366.262 34.2406 364.945 36.2616L359.406 44.81V52.9766H356.494V44.81Z" fill="#192538"/>
<path d="M39.9655 35.9098C40.003 36.0221 40.1602 36.0371 40.2425 35.9098C40.3997 35.6703 53.2372 15.3549 36.0582 0.0172868C36.0282 -0.0126548 35.9983 0.00231599 35.9908 0.0172868C35.5716 0.668517 26.2747 17.069 25.3241 18.8581C25.2792 18.9404 25.2942 18.9703 25.369 19.0152C32.7047 23.6263 38.2813 31.2913 39.973 35.9098H39.9655Z" fill="#294F9E"/>
<path d="M32.4729 48.2982C32.4355 48.1859 32.2858 48.1709 32.1959 48.2982C32.0387 48.5377 19.0441 68.7483 36.0958 84.2206C36.1258 84.2506 36.1557 84.2356 36.1632 84.2206C36.5899 83.5694 46.014 67.2512 46.9721 65.4622C47.017 65.3799 47.0021 65.3499 46.9347 65.305C39.6364 60.6341 34.1197 52.9316 32.4654 48.2982H32.4729Z" fill="#294F9E"/>
<path d="M42.8779 42.6466C42.8031 42.7365 42.863 42.8787 43.0127 42.8862C43.2971 42.9086 67.2953 44.0763 72.1908 21.5752C72.1983 21.5303 72.1758 21.5153 72.1534 21.5153C71.3749 21.4704 52.5341 21.4554 50.5056 21.5153C50.4082 21.5153 50.3933 21.5453 50.3933 21.6276C49.9891 30.2807 46.0667 38.9039 42.8854 42.6541L42.8779 42.6466Z" fill="#294F9E"/>
<path d="M29.3736 41.5837C29.4484 41.4938 29.3885 41.3516 29.2388 41.3441C28.9544 41.3292 4.94869 40.1689 0.075687 62.6775C0.0682016 62.7224 0.090658 62.7374 0.113114 62.7374C0.891596 62.7823 19.7324 62.7823 21.7609 62.7374C21.8582 62.7374 21.8732 62.7075 21.8732 62.6251C22.2699 53.972 26.1923 45.3413 29.3736 41.5911V41.5837Z" fill="#294F9E"/>
<path d="M39.12 48.1934C39.0078 48.1709 38.9105 48.2982 38.9853 48.4329C39.1126 48.6874 50.3706 69.916 72.213 62.6252C72.2579 62.6103 72.2579 62.5803 72.243 62.5654C71.8837 61.8767 62.2724 45.6708 61.187 43.9566C61.1346 43.8743 61.1047 43.8743 61.0298 43.9192C53.3872 47.9913 43.9631 49.0243 39.12 48.2009V48.1934Z" fill="#294F9E"/>
<path d="M33.1394 36.0371C33.2516 36.0595 33.3489 35.9323 33.2741 35.7975C33.1468 35.543 21.8738 14.3219 0.0388953 21.6276C-0.00601714 21.6426 -0.00601712 21.6726 0.00895369 21.6875C0.368253 22.3762 9.99448 38.5821 11.0724 40.2962C11.1248 40.3786 11.1547 40.3786 11.2296 40.3337C18.8722 36.2541 28.2888 35.2137 33.1394 36.0371Z" fill="#294F9E"/>
</svg>
